<?xml version="1.0" encoding="UTF-8" standalone="no"?><!DOCTYPE svg PUBLIC "-//W3C//DTD SVG 1.1//EN" "http://www.w3.org/Graphics/SVG/1.1/DTD/svg11.dtd"><svg width="100%" height="100%" viewBox="0 0 256 256" version="1.1" xmlns="http://www.w3.org/2000/svg" xmlns:xlink="http://www.w3.org/1999/xlink" xml:space="preserve" xmlns:serif="http://www.serif.com/" style="fill-rule:evenodd;clip-rule:evenodd;stroke-linejoin:round;stroke-miterlimit:2;"><path d="M252,28.8c0,-13.687 -11.113,-24.8 -24.8,-24.8l-198.4,0c-13.687,0 -24.8,11.113 -24.8,24.8l0,198.4c0,13.687 11.113,24.8 24.8,24.8l198.4,0c13.687,0 24.8,-11.113 24.8,-24.8l0,-198.4Z" style="fill:#363636;"/><circle id="Ellipse_12" cx="123.574" cy="49.976" r="21.985" style="fill:#858585;"/><circle id="Ellipse_121" serif:id="Ellipse_12" cx="131.064" cy="82.241" r="21.985" style="fill:#a0a0a0;"/><circle id="Ellipse_122" serif:id="Ellipse_12" cx="161.025" cy="62.076" r="21.985" style="fill:#c0c0c0;"/><circle id="Ellipse_123" serif:id="Ellipse_12" cx="195.018" cy="81.089" r="21.985" style="fill:#e0e0e0;"/><circle id="Ellipse_124" serif:id="Ellipse_12" cx="99.375" cy="77.056" r="21.985" style="fill:#c0c0c0;"/><path d="M73.83,211.919c0,10.321 8.493,18.815 18.815,18.815l112.892,0c10.322,0 18.816,-8.494 18.816,-18.815l0,-131.708l-150.523,0l0,131.708Zm106.62,-100.349c0,-3.441 2.831,-6.272 6.272,-6.272c3.441,0 6.272,2.831 6.272,6.272l0,87.805c0,3.441 -2.831,6.272 -6.272,6.272c-3.441,0 -6.272,-2.831 -6.272,-6.272l0,-87.805Zm-37.63,0c0,-3.441 2.831,-6.272 6.271,-6.272c3.441,0 6.272,2.831 6.272,6.272l0,87.805c0,3.441 -2.831,6.272 -6.272,6.272c-3.44,0 -6.271,-2.831 -6.271,-6.272l0,-87.805Zm-37.631,0c0,-3.441 2.831,-6.272 6.272,-6.272c3.44,0 6.271,2.831 6.271,6.272l0,87.805c0,3.441 -2.831,6.272 -6.271,6.272c-3.441,0 -6.272,-2.831 -6.272,-6.272l0,-87.805Z" style="fill:#858585;fill-rule:nonzero;"/><path d="M59.892,60.765l-9.568,46.055l-7.927,2.117c-3.448,0.907 -6.096,3.699 -6.819,7.191l-9.114,43.867c-0.737,3.481 0.586,7.093 3.398,9.274l6.428,5.098l-9.569,46.055c-0.7,3.369 1.496,6.717 4.865,7.417l12.281,2.551c3.369,0.7 6.717,-1.496 7.416,-4.864l33.172,-159.657c0.7,-3.369 -1.496,-6.717 -4.865,-7.417l-12.281,-2.552c-3.369,-0.699 -6.717,1.497 -7.417,4.865Z" style="fill:#6f6f6f;fill-rule:nonzero;"/></svg>